PathFileType	4	(X/Y/Z)	C:\Users\Basilio\Documents\Thesis Gigler\squatting_fais\c3dfiles\054\SLS_front_pre4\markers_experimental.trc
DataRate	CameraRate	NumFrames	NumMarkers	Units	OrigDataRate	OrigDataStartFrame	OrigNumFrames
200.000000	200.000000	4	61	mm	200.000000	710	1421
Frame#	Time	FHD			LBHD			RBHD			C7			T10			CLAV			LSHO			LUUPA			LMUPA			LDUPA			LLEP			LMEP			LRAD			LUL			LRFIN			RSHO			RUPA1			RMUPA			RDUPA			RLEP			RMEP			RRAD			RUL			RUFIN			LASI			RASI			USACR			LSACR			RSACR			LTHI1			LTHI2			LTHI3			LTHI4			LLFC			LMFC			LTIB1			LTIB2			LTIB3			LTIB4			LLMAL			LMMAL			LHEE			LMT1			LMT2			LMT5			RTHI			RTHI2			RTHI3			RTHI4			RLFC			RMFC			RTIB1			RTIB2			RTIB3			RTIB4			RLMAL			RMMAL			RHEE			RMT1			RMT2			RMT5			
		X1	Y1	Z1	X2	Y2	Z2	X3	Y3	Z3	X4	Y4	Z4	X5	Y5	Z5	X6	Y6	Z6	X7	Y7	Z7	X8	Y8	Z8	X9	Y9	Z9	X10	Y10	Z10	X11	Y11	Z11	X12	Y12	Z12	X13	Y13	Z13	X14	Y14	Z14	X15	Y15	Z15	X16	Y16	Z16	X17	Y17	Z17	X18	Y18	Z18	X19	Y19	Z19	X20	Y20	Z20	X21	Y21	Z21	X22	Y22	Z22	X23	Y23	Z23	X24	Y24	Z24	X25	Y25	Z25	X26	Y26	Z26	X27	Y27	Z27	X28	Y28	Z28	X29	Y29	Z29	X30	Y30	Z30	X31	Y31	Z31	X32	Y32	Z32	X33	Y33	Z33	X34	Y34	Z34	X35	Y35	Z35	X36	Y36	Z36	X37	Y37	Z37	X38	Y38	Z38	X39	Y39	Z39	X40	Y40	Z40	X41	Y41	Z41	X42	Y42	Z42	X43	Y43	Z43	X44	Y44	Z44	X45	Y45	Z45	X46	Y46	Z46	X47	Y47	Z47	X48	Y48	Z48	X49	Y49	Z49	X50	Y50	Z50	X51	Y51	Z51	X52	Y52	Z52	X53	Y53	Z53	X54	Y54	Z54	X55	Y55	Z55	X56	Y56	Z56	X57	Y57	Z57	X58	Y58	Z58	X59	Y59	Z59	X60	Y60	Z60	X61	Y61	Z61	

711	3.55	-198.2165679931641	1511.861206054688	-1081.357055664063	-356.7618713378907	1456.201293945313	-1155.987548828125	-377.5788879394532	1455.321533203125	-1016.996215820313	-412.8069763183595	1305.143920898438	-1073.170776367188	-520.0463867187501	992.8106689453127	-1070.099609375	-278.5721130371094	1227.218627929688	-1078.834350585938	-329.6114501953126	1304.10400390625	-1219.640991210938	-179.9560546875	1202.406372070313	-1349.5322265625	-149.6050262451172	1237.00048828125	-1334.320678710938	-111.9496612548828	1198.002075195313	-1361.159423828125	-55.75509262084962	1204.043334960938	-1358.904663085938	-51.74890899658205	1134.29052734375	-1321.41357421875	203.8311157226563	1216.528442382813	-1297.490112304688	215.5460510253907	1196.651123046875	-1371.190551757813	293.1102905273438	1244.45703125	-1317.562866210938	-330.4198608398438	1300.72998046875	-936.476989746094	-180.4306793212891	1201.644653320313	-801.1687622070315	-146.2220306396485	1233.595581054688	-812.5838623046877	-112.1678085327149	1189.525512695313	-786.4509277343752	-67.66094970703126	1186.832763671875	-788.463806152344	-66.71402740478517	1127.298583984375	-834.5091552734377	195.3721771240235	1251.314819335938	-876.409118652344	200.8914642333985	1208.007202148438	-809.2972412109377	273.5457763671876	1278.248413085938	-859.625671386719	-354.7276611328126	806.649108886719	-1167.992553710938	-363.9628295898438	837.5132446289065	-921.168884277344	-541.9715576171876	889.980895996094	-1060.165649414063	-547.4622192382814	854.962097167969	-1085.279296875	-548.6315307617189	859.8433227539065	-1028.474243164063	-295.5804748535157	597.0407714843751	-1235.22119140625	-214.0426330566407	571.4375610351564	-1228.52734375	-186.1983489990235	609.1692504882814	-1222.309204101563	-191.898178100586	517.2043457031251	-1212.080200195313	-95.18637084960939	426.384979248047	-1175.751586914063	-69.83751678466798	456.0051574707032	-1039.613037109375	-124.1961746215821	290.1784667968751	-1091.7158203125	-187.9664306640625	262.3025512695313	-1147.195434570313	-160.2968902587891	248.9104766845704	-1115.47509765625	-208.0489654541016	197.530502319336	-1070.00634765625	-331.5813293457032	109.8807525634766	-1099.704833984375	-298.0908508300782	133.0552673339844	-1008.380187988281	-406.5258178710939	105.206413269043	-1037.852172851563	-197.2953186035157	54.86621475219728	-1016.350708007813	-188.751205444336	53.50669479370119	-1065.677734375	-241.9220275878907	40.0756950378418	-1116.887329101563	-231.0597381591797	616.7174682617189	-840.2122192382815	-165.2195281982422	620.4392700195314	-850.202575683594	-149.086181640625	648.0263671875001	-858.5608520507815	-115.4313201904297	555.0036621093751	-867.3115844726565	-56.08164978027345	491.2439575195314	-878.5302734375002	-36.34213638305665	532.7102661132814	-1007.065002441406	48.6861915588379	437.6246948242189	-892.4494628906252	34.40069961547852	334.8177795410157	-868.0809326171877	75.1510467529297	355.1673278808594	-876.719421386719	113.9830703735352	324.9594726562501	-906.7386474609377	164.229232788086	146.7965850830078	-902.9335937500002	191.6370544433594	184.4525451660157	-984.9637451171877	133.858627319336	90.95757293701173	-967.8986816406252	337.8768005371094	181.1818237304688	-958.8782958984377	333.7715148925782	187.692855834961	-910.7452392578127	295.9380187988282	145.2326354980469	-867.2274169921877	
712	3.555	-197.8699340820313	1511.090942382813	-1081.546508789063	-356.6615905761719	1455.25146484375	-1156.065673828125	-377.2276611328126	1454.586181640625	-1017.074157714844	-412.5533752441407	1304.544067382813	-1073.137329101563	-520.1795043945314	992.2288208007815	-1070.041870117188	-278.2208251953126	1226.486206054688	-1078.705200195313	-329.2876281738282	1303.5693359375	-1219.708740234375	-180.0270538330078	1201.835083007813	-1349.623413085938	-149.4066772460938	1236.513427734375	-1334.33935546875	-112.0130233764649	1197.689819335938	-1361.275268554688	-55.60936355590822	1203.692749023438	-1359.18505859375	-51.50327682495119	1133.843505859375	-1321.781127929688	204.1813201904297	1216.079956054688	-1297.871459960938	215.7902526855469	1196.479125976563	-1371.649780273438	293.9397583007813	1244.17431640625	-1317.838623046875	-330.1933593750001	1299.899169921875	-936.4262695312502	-180.4237976074219	1201.013916015625	-800.9226074218752	-146.1863555908203	1232.851318359375	-812.4368896484377	-111.931625366211	1189.03759765625	-786.370788574219	-67.4668426513672	1186.141723632813	-788.3696289062502	-66.48044586181642	1126.649291992188	-834.3986816406252	195.1453247070313	1250.3974609375	-876.182312011719	201.2189178466797	1207.523803710938	-809.2728271484377	273.7325134277344	1277.70458984375	-859.6544189453127	-354.7074584960938	806.187194824219	-1168.42431640625	-364.2562255859376	836.911315917969	-920.9336547851565	-542.3826293945314	889.3564453125002	-1060.210327148438	-547.3631591796876	854.5284423828127	-1085.38037109375	-549.7872924804689	859.3216552734377	-1028.510864257813	-295.8298645019532	596.7129516601564	-1235.265502929688	-214.0440826416016	571.1994628906251	-1228.592407226563	-186.2671508789063	608.9832763671876	-1222.389892578125	-191.870834350586	517.0040283203126	-1212.091552734375	-94.8569793701172	426.1889648437501	-1175.850952148438	-69.9138641357422	455.9077453613282	-1039.594848632813	-124.1621551513672	290.0811767578126	-1091.688110351563	-187.8328552246094	262.2399291992188	-1147.161254882813	-160.1338653564453	248.7044677734376	-1115.433227539063	-208.0339508056641	197.5119323730469	-1069.988037109375	-331.4323120117188	109.9789657592774	-1099.718383789063	-298.1116027832032	133.05322265625	-1008.402465820313	-406.5171813964845	105.20166015625	-1037.861328125	-197.2926940917969	54.86230087280275	-1016.336853027344	-188.7763214111328	53.57414627075197	-1065.667114257813	-241.9257965087891	40.07608795166016	-1116.889404296875	-231.1682586669922	616.4181518554689	-840.2977294921877	-165.3837432861328	620.1654663085939	-850.1917724609377	-149.2640686035157	647.7848510742189	-858.6453857421877	-115.632797241211	554.8073120117189	-867.360534667969	-56.13390350341798	491.1125488281251	-878.5410156250002	-36.29870605468751	532.6406860351564	-1007.027648925781	48.60747528076173	437.5137634277345	-892.556823730469	34.34064865112305	334.6761169433594	-868.1953125000002	75.05722808837892	355.0189208984376	-876.759704589844	113.9851608276367	324.8623046875001	-906.8428344726565	164.2145538330078	146.6748504638672	-903.132995605469	191.618148803711	184.4015197753907	-985.2327270507815	133.7936553955078	90.86533355712892	-968.2310791015627	337.8808898925782	181.1520385742188	-959.1651000976565	333.5841064453126	187.4212799072266	-910.8729248046877	295.9022216796876	145.1470642089844	-867.4287109375002	
713	3.56	-197.8678894042969	1510.464477539063	-1081.542114257813	-356.5985412597657	1454.494506835938	-1156.11767578125	-377.1401672363282	1453.689331054688	-1017.077453613281	-412.1982421875001	1303.90234375	-1073.025512695313	-520.4268798828126	991.7784423828127	-1070.089233398438	-277.9013061523438	1225.639526367188	-1078.611206054688	-328.9290466308594	1302.609375	-1219.569580078125	-179.8171844482422	1201.335693359375	-1349.808227539063	-149.2090759277344	1236.0087890625	-1334.439086914063	-111.7178955078125	1197.337158203125	-1361.509643554688	-55.34769821166994	1203.339477539063	-1359.4677734375	-51.5873146057129	1133.689086914063	-1322.530151367188	204.3768463134766	1215.720825195313	-1298.150268554688	216.0035247802735	1196.325073242188	-1372.041381835938	294.1229858398438	1243.9208984375	-1318.13671875	-329.8523864746094	1299.124389648438	-936.3288574218752	-180.2628173828125	1200.538452148438	-800.850524902344	-145.8531951904297	1232.27490234375	-812.3370361328127	-111.8611679077149	1188.363403320313	-785.9815063476565	-67.25897216796876	1185.472045898438	-787.3267822265627	-66.40193939208986	1126.120971679688	-834.0953369140627	195.4061279296876	1249.869873046875	-876.1933593750002	201.5805816650391	1207.010620117188	-809.266540527344	274.0474243164063	1277.258056640625	-859.7939453125002	-354.9965209960938	805.7564697265627	-1168.479125976563	-365.0938110351563	836.396423339844	-921.7645263671877	-542.4985961914064	888.6916503906252	-1060.396118164063	-547.6723022460939	853.8352050781252	-1085.501586914063	-550.0522460937501	858.7744750976565	-1028.569091796875	-295.9196777343751	596.3359375000001	-1235.32421875	-214.2339477539063	570.9413452148439	-1228.344970703125	-186.361083984375	608.8206176757814	-1222.417724609375	-191.8794555664063	516.7957153320314	-1212.112182617188	-94.75991058349611	426.0670776367189	-1175.815551757813	-69.93869018554689	455.8298645019532	-1039.571044921875	-124.0794296264649	290.0497436523438	-1091.557861328125	-187.7759246826172	262.1430969238282	-1147.134643554688	-160.0124816894532	248.6190032958985	-1115.361450195313	-208.0002593994141	197.4932403564454	-1069.89306640625	-331.4276123046876	109.9206924438477	-1099.707397460938	-298.0940856933594	133.0016784667969	-1008.396850585938	-406.5105895996095	105.1908340454102	-1037.886840820313	-197.2821655273438	54.86829376220705	-1016.327392578125	-188.780990600586	53.5379104614258	-1065.64990234375	-241.9295654296876	40.1015739440918	-1116.884521484375	-231.4237365722657	615.9662475585939	-840.3211059570315	-165.4454498291016	619.9467773437501	-850.2935180664065	-149.536117553711	647.4990844726564	-858.6338500976565	-115.6894912719727	554.5619506835939	-867.3458251953127	-56.22191619873048	490.915252685547	-878.5515136718752	-36.30915832519532	532.5715942382814	-1006.992248535156	48.57972335815431	437.3160705566407	-892.5615234375002	34.23261642456055	334.5356750488282	-868.3730468750002	75.04331207275392	354.9152221679688	-876.8575439453127	113.9101791381836	324.8047180175782	-906.9732055664065	164.0816040039063	146.5289916992188	-903.3567504882815	191.6381072998047	184.2838287353516	-985.3428344726565	133.7246704101563	90.80238342285158	-968.5614013671877	337.8325500488282	181.0501403808594	-959.227966308594	333.6033935546876	187.3193969726563	-911.028747558594	295.8160400390626	145.0046844482422	-867.7239990234377	
714	3.565	-197.5705261230469	1509.634643554688	-1081.708374023438	-355.9438171386719	1453.483276367188	-1156.27734375	-376.8865356445313	1453.014892578125	-1017.171752929688	-411.845428466797	1303.181518554688	-1072.955322265625	-520.3950195312501	991.2221679687502	-1070.2314453125	-277.7591247558594	1224.78564453125	-1078.512817382813	-328.6044006347657	1301.828125	-1219.445678710938	-179.8548278808594	1201.040283203125	-1349.846801757813	-148.8195190429688	1235.53564453125	-1334.554443359375	-111.4110717773438	1196.8603515625	-1361.732666015625	-54.98105621337892	1202.942260742188	-1359.738403320313	-50.99292755126955	1133.208740234375	-1323.048217773438	204.4642639160157	1215.442504882813	-1298.471435546875	216.2610626220704	1196.1806640625	-1372.427612304688	294.4959716796876	1243.598876953125	-1318.482421875	-329.4385375976563	1298.429931640625	-936.2905273437502	-179.8850402832032	1199.98046875	-800.7717895507815	-145.6461181640625	1231.7529296875	-812.2461547851565	-111.6762237548828	1187.704467773438	-785.9522094726565	-67.0848846435547	1184.786254882813	-788.0305175781252	-66.10964965820314	1125.529907226563	-834.0482177734377	195.6860809326172	1249.353515625	-876.1591796875002	201.8058319091797	1206.554077148438	-809.145202636719	274.2280578613282	1276.7021484375	-859.8396606445315	-355.5467834472657	805.3182373046877	-1168.465209960938	-364.8359375000001	835.7124023437502	-921.0357666015627	-542.8267822265626	888.1784667968752	-1060.493896484375	-547.0364990234376	852.9893798828127	-1085.707763671875	-549.8560791015626	858.1845703125002	-1028.845947265625	-295.7670593261719	595.9851684570314	-1235.471069335938	-214.3318634033204	570.6877441406251	-1228.411010742188	-186.4596710205078	608.6101684570314	-1222.443603515625	-191.8343811035157	516.6022338867189	-1212.110717773438	-94.63711547851564	425.9014587402345	-1175.770629882813	-69.94819641113283	455.7422790527345	-1039.541870117188	-124.0411987304688	290.0386047363282	-1091.435791015625	-187.6826782226563	262.0852966308594	-1147.043701171875	-159.9835815429688	248.6250915527344	-1115.269409179688	-207.9927520751954	197.4896545410157	-1069.831298828125	-331.7565307617188	109.6935272216797	-1099.611083984375	-298.0732421875001	132.9599914550782	-1008.396057128906	-406.5143127441407	105.201904296875	-1037.88037109375	-197.2977752685547	54.86898040771486	-1016.329223632813	-188.7469940185547	53.50201416015626	-1065.619018554688	-241.9328613281251	40.10499954223634	-1116.827026367188	-231.7274932861329	615.5792236328126	-840.333679199219	-165.7960357666016	619.4436035156251	-850.2972412109377	-149.7035369873047	647.2899780273439	-858.690612792969	-115.7816238403321	554.3287353515626	-867.3262939453127	-56.23244857788087	490.7672424316407	-878.599304199219	-36.19346618652344	532.5817260742189	-1007.032836914063	48.55332183837892	437.1621704101564	-892.5894775390627	34.20845794677735	334.3368530273438	-868.5417480468752	74.92919158935548	354.7670898437501	-876.9097290039065	113.8530426025391	324.7021179199219	-907.0779418945315	163.9913940429688	146.3677368164063	-903.6441040039065	191.6537780761719	184.1922912597657	-985.5693359375002	133.6669006347657	90.69203186035158	-968.767028808594	337.7830505371094	180.9687194824219	-959.3151855468752	333.5061340332032	187.1923828125	-911.1270751953127	295.6832275390626	144.8240509033203	-867.947692871094	
